<svg width="50" height="50" viewBox="0 0 50 50" fill="none" xmlns="http://www.w3.org/2000/svg">
<g clip-path="url(#clip0_103_224)">
<path d="M49 25C49 11.7452 38.2548 1 25 1C11.7452 1 1 11.7452 1 25C1 38.2548 11.7452 49 25 49C38.2548 49 49 38.2548 49 25Z" stroke="white" stroke-width="2"/>
<path fill-rule="evenodd" clip-rule="evenodd" d="M12 32.7069V17H19.5934C22.0324 17 24.0096 18.8907 24.0096 21.2229C24.0096 22.7049 23.533 23.623 21.7856 24.5648C23.8766 25.4759 24.4573 26.7386 24.4573 28.4999C24.4573 30.8825 22.2438 32.7069 19.7522 32.7069H12ZM15.2132 19.6V23.3769H18.9739C18.9739 23.3769 20.8017 23.3769 20.8017 21.4885C20.8017 19.6 18.9739 19.6 18.9739 19.6H15.2132ZM15.2132 30.0468V25.9685H19.247C19.8983 25.9685 21.2639 26.29 21.2639 28.2186C21.2639 29.649 19.9193 30.0334 19.247 30.0468H15.2132Z" fill="white"/>
<path fill-rule="evenodd" clip-rule="evenodd" d="M31.3274 21.3277C29.0164 21.3277 25.5919 22.9148 25.5919 27.1337C25.5919 29.7027 27.0625 33 31.4745 33C35.0041 33 36.6288 30.5222 37 29.2834H33.6805C33.5124 29.8459 32.8611 30.4687 31.4745 30.4687C29.4576 30.4687 28.7433 28.8213 28.6382 27.9976H37V27.1337C37 22.9148 33.6385 21.3277 31.3274 21.3277ZM31.3274 23.7385C29.445 23.7385 28.7503 25.2252 28.6382 25.9685H33.6805C33.6805 25.2252 33.2099 23.7385 31.3274 23.7385Z" fill="white"/>
<path d="M27.3146 17.8924V19.8411H35.2352V17.8924H27.3146Z" fill="white"/>
</g>
<defs>
<clipPath id="clip0_103_224">
<rect width="50" height="50" fill="white"/>
</clipPath>
</defs>
</svg>
