<svg width="50" height="29" viewBox="0 0 50 29" fill="none" xmlns="http://www.w3.org/2000/svg">
<path d="M20.2338 0L21.4928 5.61875C20.5336 6.10208 19.5144 7.15937 18.4352 8.79063C17.4161 10.4219 16.8165 12.2042 16.6367 14.1375L22.7518 15.1344V29H0V20.5719C0 15.0135 1.58873 10.3917 4.76619 6.70625C8.0036 3.02083 13.1595 0.785417 20.2338 0ZM47.482 0L48.741 5.61875C47.7818 6.10208 46.7626 7.15937 45.6835 8.79063C44.6643 10.4219 44.0647 12.2042 43.8849 14.1375L50 15.1344V29H27.2482V20.5719C27.2482 15.0135 28.8369 10.3917 32.0144 6.70625C35.2518 3.02083 40.4077 0.785417 47.482 0Z" fill="black"/>
</svg>
