<svg width="50" height="50" viewBox="0 0 50 50" fill="none" xmlns="http://www.w3.org/2000/svg">
<rect x="1" y="1" width="48" height="48" rx="24" stroke="white" stroke-width="2"/>
<path d="M25.0216 15.9854C27.9626 15.9854 28.3113 15.9951 29.4735 16.05C30.5486 16.0984 31.1329 16.2792 31.5203 16.431C32.0336 16.6311 32.4016 16.87 32.7858 17.2542C33.17 17.6384 33.4089 18.0064 33.609 18.5197C33.7608 18.9071 33.9383 19.4914 33.99 20.5665C34.0416 21.7287 34.0545 22.0773 34.0545 25.0184C34.0545 27.9594 34.0449 28.3081 33.99 29.4703C33.9416 30.5453 33.7608 31.1297 33.609 31.5171C33.4089 32.0304 33.17 32.3984 32.7858 32.7826C32.4016 33.1667 32.0336 33.4056 31.5203 33.6058C31.1329 33.7575 30.5486 33.9351 29.4735 33.9867C28.3113 34.0384 27.9626 34.0513 25.0216 34.0513C22.0806 34.0513 21.7319 34.0416 20.5697 33.9867C19.4947 33.9383 18.9103 33.7575 18.5229 33.6058C18.0096 33.4056 17.6416 33.1667 17.2574 32.7826C16.8732 32.3984 16.6343 32.0304 16.4342 31.5171C16.2824 31.1297 16.1049 30.5453 16.0532 29.4703C16.0016 28.3081 15.9887 27.9594 15.9887 25.0184C15.9887 22.0773 15.9984 21.7287 16.0532 20.5665C16.1017 19.4914 16.2824 18.9071 16.4342 18.5197C16.6343 18.0064 16.8732 17.6384 17.2574 17.2542C17.6416 16.87 18.0096 16.6311 18.5229 16.431C18.9103 16.2792 19.4947 16.1017 20.5697 16.05C21.7319 15.9951 22.0806 15.9854 25.0216 15.9854ZM25.0216 14C22.0289 14 21.6544 14.0129 20.4793 14.0678C19.3074 14.1227 18.5068 14.3067 17.803 14.5811C17.0799 14.8587 16.4632 15.2365 15.8531 15.8498C15.2397 16.4632 14.8652 17.0766 14.5811 17.803C14.3099 18.5036 14.1227 19.3042 14.0678 20.4793C14.0129 21.6544 14 22.0289 14 25.0216C14 28.0143 14.0129 28.3888 14.0678 29.5639C14.1227 30.7358 14.3067 31.5364 14.5811 32.2402C14.862 32.9601 15.2397 33.5767 15.8531 34.1869C16.4665 34.8003 17.0799 35.1748 17.8062 35.4589C18.5068 35.7301 19.3074 35.9173 20.4825 35.9722C21.6577 36.0271 22.0321 36.04 25.0248 36.04C28.0175 36.04 28.392 36.0271 29.5671 35.9722C30.739 35.9173 31.5397 35.7333 32.2434 35.4589C32.9634 35.178 33.58 34.8003 34.1901 34.1869C34.8035 33.5735 35.178 32.9601 35.4621 32.2338C35.7333 31.5332 35.9205 30.7326 35.9754 29.5574C36.0303 28.3823 36.0432 28.0078 36.0432 25.0152C36.0432 22.0225 36.0303 21.648 35.9754 20.4729C35.9205 19.301 35.7365 18.5003 35.4621 17.7965C35.1812 17.0766 34.8035 16.46 34.1901 15.8498C33.5767 15.2365 32.9634 14.862 32.237 14.5779C31.5364 14.3067 30.7358 14.1194 29.5607 14.0646C28.3888 14.0129 28.0143 14 25.0216 14Z" fill="white"/>
<path d="M25.0216 19.3591C21.8966 19.3591 19.3623 21.8934 19.3623 25.0184C19.3623 28.1435 21.8966 30.6777 25.0216 30.6777C28.1467 30.6777 30.6809 28.1435 30.6809 25.0184C30.6809 21.8934 28.1467 19.3591 25.0216 19.3591ZM25.0216 28.6923C22.9942 28.6923 21.3477 27.0491 21.3477 25.0184C21.3477 22.9878 22.9942 21.3446 25.0216 21.3446C27.049 21.3446 28.6955 22.9878 28.6955 25.0184C28.6955 27.0491 27.049 28.6923 25.0216 28.6923Z" fill="white"/>
<path d="M30.9037 20.46C31.6347 20.46 32.2273 19.8674 32.2273 19.1364C32.2273 18.4054 31.6347 17.8127 30.9037 17.8127C30.1727 17.8127 29.5801 18.4054 29.5801 19.1364C29.5801 19.8674 30.1727 20.46 30.9037 20.46Z" fill="white"/>
</svg>
