<svg width="50" height="50" viewBox="0 0 50 50" fill="none" xmlns="http://www.w3.org/2000/svg">
<rect x="1" y="1" width="48" height="48" rx="24" stroke="white" stroke-width="2"/>
<path d="M19.5402 33.8232V21.1224H15.2529V33.8232H19.5406H19.5402ZM17.3973 19.3886C18.8921 19.3886 19.8227 18.4133 19.8227 17.1945C19.7946 15.948 18.8921 15 17.4258 15C15.9583 15 15 15.948 15 17.1945C15 18.4133 15.9302 19.3886 17.3692 19.3886H17.3969H17.3973ZM21.9132 33.8232H26.2001V26.7313C26.2001 26.3521 26.2282 25.9722 26.3414 25.7014C26.6512 24.9426 27.3567 24.1572 28.5413 24.1572C30.0923 24.1572 30.713 25.3218 30.713 27.0294V33.8232H35V26.541C35 22.64 32.8852 20.8247 30.0645 20.8247C27.7519 20.8247 26.7363 22.0974 26.1721 22.9643H26.2005V21.1228H21.9136C21.9694 22.3143 21.9132 33.8235 21.9132 33.8235V33.8232Z" fill="white"/>
</svg>
